<svg xmlns="http://www.w3.org/2000/svg" viewBox="0 0 4096 1946" role="img" aria-label="FunkyElite">
<g fill="#e9f1fb" stroke="none" transform="translate(0.000000,1946.000000) scale(0.100000,-0.100000)">
<path d="M23595 18760 c-71 -10 -164 -26 -205 -34 -41 -9 -102 -21 -135 -26
-110 -19 -346 -100 -510 -175 -246 -114 -299 -143 -485 -269 -19 -13 -80 -53
-135 -89 -55 -36 -125 -85 -156 -109 -31 -24 -85 -65 -120 -92 -529 -410
-1293 -1273 -1863 -2109 -128 -187 -170 -252 -332 -517 -15 -25 -47 -76 -71
-115 -68 -108 -171 -282 -204 -344 -16 -31 -53 -94 -81 -141 -63 -105 -240
-425 -320 -580 -33 -63 -92 -176 -130 -250 -108 -208 -113 -215 -160 -235
-183 -77 -427 -208 -544 -291 -210 -149 -281 -210 -399 -343 -312 -351 -246
-652 169 -767 59 -16 100 -33 106 -44 10 -19 -34 -125 -301 -713 -22 -49 -47
-107 -55 -130 -8 -23 -37 -89 -63 -147 -55 -118 -95 -208 -171 -390 -29 -69
-63 -145 -75 -170 -34 -68 -128 -314 -206 -540 -22 -63 -53 -149 -69 -190 -15
-41 -47 -136 -70 -210 -23 -74 -52 -164 -65 -200 -13 -36 -53 -153 -88 -260
-36 -107 -84 -247 -107 -310 -125 -347 -180 -528 -180 -587 0 -169 117 -181
180 -18 36 96 123 349 216 630 47 143 101 301 119 350 61 162 117 318 155 436
57 170 87 234 104 220 14 -11 54 -76 245 -396 59 -99 132 -217 162 -261 30
-45 103 -155 163 -245 60 -90 130 -192 155 -226 25 -33 78 -107 116 -162 39
-56 101 -143 138 -194 37 -51 85 -114 105 -142 20 -27 60 -76 90 -109 29 -32
72 -84 95 -115 23 -31 103 -125 177 -210 188 -213 210 -240 204 -255 -2 -6
-60 -38 -127 -70 -609 -291 -973 -482 -1327 -696 -77 -47 -155 -94 -173 -104
-46 -28 -577 -383 -640 -429 -28 -21 -70 -50 -92 -65 -396 -266 -932 -733
-1177 -1024 -51 -61 -112 -132 -134 -158 -23 -26 -72 -94 -110 -151 -37 -57
-75 -113 -85 -124 -10 -11 -54 -87 -98 -169 -45 -82 -85 -154 -90 -160 -4 -6
-25 -51 -45 -101 -21 -49 -42 -101 -48 -115 -271 -656 -262 -1391 26 -2075 83
-196 266 -502 390 -650 23 -27 49 -62 58 -76 32 -50 214 -235 320 -324 415
-349 716 -502 1208 -614 245 -56 651 -49 970 16 290 59 643 202 905 366 131
82 194 124 235 157 25 20 88 71 140 112 147 117 541 517 597 605 9 16 42 55
73 88 30 34 102 124 159 200 58 77 130 174 161 215 31 41 63 86 70 100 7 14
54 88 105 165 174 266 238 375 416 705 139 260 409 811 444 910 7 19 37 87 68
150 66 137 176 391 222 510 18 47 58 148 90 225 65 158 93 229 105 265 4 14
27 75 50 135 23 61 55 146 70 190 16 44 47 132 70 195 60 166 277 812 350
1040 34 107 70 220 80 250 10 30 35 114 55 185 20 72 57 193 82 270 24 76 53
171 63 210 10 38 25 93 34 120 15 53 33 117 92 330 20 72 45 161 56 199 11 39
38 140 59 225 22 86 44 172 49 191 19 68 156 642 190 790 19 87 38 162 90 370
11 42 28 121 39 175 11 55 32 150 46 210 24 104 52 225 95 415 10 47 31 139
47 205 52 222 38 291 -57 282 -62 -5 -92 -27 -159 -116 -70 -92 -387 -422
-526 -548 -55 -50 -164 -153 -243 -229 -230 -222 -238 -228 -262 -199 -7 8
-18 15 -24 15 -21 0 -118 -128 -112 -147 3 -13 -10 -30 -45 -58 -69 -55 -233
-178 -299 -223 -163 -113 -230 -157 -275 -179 -27 -14 -60 -34 -73 -44 -30
-23 -148 -62 -167 -55 -57 21 88 401 349 915 38 75 89 177 113 226 25 50 55
104 67 120 46 61 254 437 363 655 59 116 68 206 24 241 -61 50 -191 13 -314
-89 -38 -31 -91 -75 -118 -97 -101 -83 -222 -240 -235 -305 -16 -75 70 -109
136 -54 17 15 64 68 104 118 138 171 143 140 14 -84 -69 -118 -146 -258 -220
-400 -28 -52 -66 -120 -84 -151 -19 -31 -34 -59 -34 -63 0 -7 -19 -45 -147
-296 -88 -171 -196 -406 -276 -595 -147 -350 -26 -528 263 -389 89 43 285 168
310 199 8 10 40 36 70 58 66 49 135 106 204 168 28 25 62 53 75 62 13 9 59 49
102 89 139 131 179 162 192 149 6 -6 16 -11 22 -11 16 0 112 121 116 146 2 12
62 69 139 135 74 63 197 173 273 244 76 72 156 144 177 161 22 18 70 58 107
91 154 134 168 135 139 3 -8 -36 -19 -92 -25 -125 -6 -33 -15 -80 -21 -105 -5
-25 -16 -74 -24 -110 -8 -36 -28 -126 -46 -200 -17 -74 -47 -207 -66 -295 -18
-88 -41 -191 -49 -230 -8 -38 -24 -104 -34 -145 -11 -41 -31 -124 -45 -185
-60 -262 -78 -335 -97 -410 -43 -168 -50 -194 -84 -340 -20 -82 -53 -213 -75
-290 -21 -77 -60 -221 -85 -320 -48 -183 -121 -442 -170 -595 -14 -47 -46
-146 -70 -220 -23 -74 -59 -189 -80 -255 -46 -150 -239 -721 -295 -875 -23
-63 -53 -149 -66 -190 -14 -41 -47 -133 -75 -205 -28 -71 -64 -164 -79 -205
-49 -129 -187 -471 -231 -570 -23 -52 -50 -117 -60 -145 -34 -94 -163 -396
-194 -455 -7 -14 -55 -115 -106 -225 -185 -400 -427 -858 -618 -1172 -31 -50
-68 -113 -84 -140 -42 -73 -161 -256 -214 -328 -27 -36 -64 -88 -83 -116 -81
-118 -273 -361 -429 -544 -84 -99 -351 -368 -432 -435 -103 -87 -261 -203
-358 -265 -148 -94 -450 -240 -561 -271 -25 -7 -85 -24 -135 -39 -364 -109
-693 -119 -1107 -34 -81 16 -173 39 -204 49 -32 11 -63 20 -71 20 -44 0 -369
155 -509 243 -544 342 -963 958 -1100 1617 -33 159 -54 374 -48 500 13 312 51
487 194 895 23 66 157 353 180 385 10 14 34 57 54 95 20 39 61 104 91 145 30
41 65 91 77 111 193 308 754 873 1231 1239 159 122 224 172 247 188 14 9 79
55 143 102 65 47 135 96 156 110 31 20 301 199 451 300 14 9 84 51 155 92 72
41 160 93 197 116 37 23 91 53 120 68 29 14 60 32 68 39 15 12 146 82 350 186
58 29 116 60 130 70 38 26 385 189 402 189 8 0 58 -39 110 -88 226 -206 311
-279 461 -389 217 -160 310 -219 492 -308 337 -166 554 -213 782 -170 160 31
330 138 414 263 106 157 69 209 -62 85 -276 -263 -556 -285 -975 -79 -176 86
-300 160 -399 237 -285 221 -354 279 -469 398 -72 73 -132 140 -134 147 -4 16
186 110 463 229 94 40 201 87 240 105 38 17 117 49 175 72 58 22 166 64 240
93 74 29 160 61 190 70 62 19 96 31 190 69 36 14 189 67 340 116 151 50 289
97 305 105 17 8 47 21 68 29 31 13 56 56 32 56 -36 0 -254 -37 -330 -57 -111
-28 -146 -36 -222 -52 -28 -5 -77 -20 -110 -31 -32 -12 -92 -30 -133 -40 -71
-18 -204 -63 -420 -143 -188 -69 -257 -96 -358 -141 -56 -25 -133 -57 -170
-70 -37 -13 -118 -47 -179 -75 -62 -28 -115 -51 -118 -51 -2 0 -75 -29 -160
-65 -86 -36 -163 -65 -170 -65 -29 0 -241 242 -360 411 -16 23 -50 66 -75 95
-43 49 -156 203 -254 344 -25 36 -75 109 -113 163 -76 110 -115 169 -187 284
-27 43 -73 114 -101 158 -28 44 -63 100 -78 125 -15 25 -40 63 -56 85 -15 22
-47 74 -71 115 -24 41 -66 116 -95 165 -124 212 -151 261 -158 277 -8 22 15
46 51 54 95 19 275 75 392 120 131 51 216 86 275 114 33 16 74 33 91 38 17 6
51 25 76 44 24 19 60 40 79 47 202 75 498 294 647 478 333 410 422 867 195
1000 -54 31 -159 42 -219 23 -223 -71 -565 -261 -764 -424 -30 -25 -86 -70
-125 -100 -111 -87 -273 -234 -279 -254 -4 -11 -15 -23 -26 -28 -26 -12 -163
-137 -225 -204 -130 -142 -251 -265 -263 -268 -10 -3 -9 5 4 35 9 21 34 85 56
143 22 58 51 126 64 151 23 46 43 96 89 214 12 33 41 98 63 145 22 47 57 126
77 175 55 133 144 336 160 365 7 14 30 66 50 115 55 133 93 201 121 214 16 7
93 11 207 11 371 0 1016 35 1222 65 55 8 145 19 200 25 55 6 125 15 155 19 30
5 96 14 145 20 108 13 154 21 445 78 317 61 625 138 895 223 66 20 158 49 205
63 47 14 155 50 240 80 85 30 189 66 230 80 41 14 138 51 215 82 77 31 172 68
210 82 39 14 100 41 137 59 36 18 129 60 205 93 269 115 890 435 1033 531 30
21 75 48 100 60 85 43 501 316 635 416 182 136 235 181 378 313 686 635 1006
1314 984 2093 -22 788 -380 1461 -984 1849 -405 261 -1005 382 -1528 309z
m715 -136 c238 -37 507 -122 660 -209 95 -53 152 -90 200 -130 30 -24 78 -62
105 -84 259 -199 497 -578 585 -932 16 -68 36 -144 42 -169 17 -66 27 -165 34
-338 7 -152 1 -227 -31 -418 -19 -111 -87 -363 -118 -434 -8 -19 -34 -80 -57
-135 -47 -110 -130 -267 -190 -360 -22 -33 -53 -83 -70 -111 -84 -141 -329
-418 -534 -602 -141 -127 -180 -160 -331 -283 -173 -141 -624 -457 -780 -548
-87 -51 -243 -144 -333 -200 -217 -134 -1019 -520 -1217 -586 -51 -17 -130
-48 -175 -68 -124 -55 -752 -263 -865 -287 -27 -6 -68 -17 -90 -24 -76 -26
-354 -94 -490 -120 -44 -9 -102 -20 -130 -26 -98 -20 -431 -79 -485 -85 -30
-4 -68 -11 -85 -16 -65 -19 -546 -68 -680 -69 -55 0 -126 -4 -158 -10 -110
-18 -437 -25 -437 -9 0 7 -55 69 -122 136 -122 122 -122 122 -78 215 153 328
517 1045 673 1323 94 169 160 290 191 350 17 33 57 103 87 155 31 52 84 142
117 200 74 130 193 328 237 395 18 28 79 124 135 215 92 148 181 281 319 480
25 36 69 101 99 145 29 44 62 90 74 102 11 11 43 55 71 96 63 92 149 206 237
312 36 44 85 107 110 140 263 355 928 1032 1280 1303 30 23 81 64 112 91 54
44 202 145 358 243 115 73 332 174 460 216 275 90 300 96 550 143 68 12 401
26 505 21 33 -2 130 -14 215 -28z m-5640 -5050 c0 -8 -57 -131 -128 -272 -70
-141 -156 -318 -190 -392 -63 -134 -63 -134 -218 21 -155 155 -155 155 -77
231 91 88 137 126 250 203 45 31 85 60 88 65 3 5 38 28 78 51 40 23 83 52 97
65 43 39 100 56 100 28z m-487 -1017 c-36 -85 -69 -146 -87 -160 -16 -11 -142
2 -201 20 -218 68 -254 193 -122 418 95 163 80 164 273 -27 171 -170 171 -170
137 -251z m1016 -872 c80 -41 81 -141 4 -380 -68 -212 -259 -534 -364 -612 -9
-7 -39 -35 -67 -62 -28 -28 -70 -60 -92 -71 -27 -14 -45 -31 -52 -51 -8 -22
-16 -29 -36 -29 -32 0 -128 -43 -157 -70 -11 -10 -40 -23 -65 -30 -25 -6 -63
-22 -85 -35 -48 -28 -310 -116 -415 -140 -41 -9 -88 -21 -103 -26 -126 -39
-167 -24 -234 86 -46 74 -47 86 -16 128 74 96 246 300 314 372 42 44 104 113
138 154 33 41 79 89 100 108 22 18 43 42 46 52 3 11 19 24 35 30 16 5 51 29
77 53 27 24 66 57 88 73 22 16 54 44 70 62 17 18 53 48 82 66 28 17 98 63 154
101 248 167 498 263 578 221z"/>
<path d="M3570 17324 c-230 -15 -564 -66 -741 -113 -1151 -308 -1852 -1183
-2124 -2653 -51 -274 -119 -856 -135 -1153 -16 -307 -6 -859 20 -1020 5 -33
14 -127 20 -210 6 -82 15 -179 20 -215 9 -59 62 -392 80 -500 4 -25 20 -99 34
-165 15 -66 34 -154 42 -195 30 -139 195 -722 234 -825 10 -27 23 -66 29 -85
60 -213 286 -738 416 -965 34 -60 95 -168 135 -238 39 -71 89 -154 111 -185
21 -31 63 -93 93 -137 146 -215 231 -323 393 -497 693 -748 1323 -945 2163
-676 563 181 1132 695 1434 1297 220 437 280 869 140 1009 -30 30 -39 34 -71
29 -62 -10 -74 -32 -85 -143 -5 -54 -18 -135 -29 -179 -12 -44 -25 -96 -29
-115 -45 -183 -222 -539 -351 -708 -27 -35 -54 -73 -60 -85 -39 -72 -304 -339
-459 -461 -287 -226 -625 -360 -1002 -397 -267 -26 -443 6 -786 139 -218 85
-444 257 -685 521 -77 84 -147 169 -281 341 -202 261 -499 807 -637 1170 -88
234 -143 390 -183 525 -27 88 -61 201 -77 250 -29 90 -81 291 -98 375 -11 59
-48 233 -61 290 -5 25 -14 75 -20 113 -11 73 -22 142 -45 287 -22 130 -47 353
-77 685 -19 206 -16 793 6 1020 53 558 150 1114 238 1355 11 30 28 82 38 115
10 33 36 106 59 162 22 55 41 106 41 112 0 52 234 468 355 631 278 376 594
603 1035 744 206 67 259 80 450 117 79 14 447 48 663 61 327 18 1003 -37 1357
-112 25 -5 113 -23 195 -40 246 -51 377 -83 780 -194 141 -39 387 -115 475
-148 30 -11 98 -35 150 -53 52 -19 127 -46 165 -60 39 -15 88 -33 110 -40 40
-14 156 -57 250 -93 28 -10 94 -36 149 -56 54 -21 119 -47 145 -58 25 -11 84
-36 131 -55 47 -19 114 -47 150 -62 36 -16 117 -50 180 -76 63 -26 176 -73
250 -105 719 -307 1088 -455 1475 -593 503 -179 1134 -361 1410 -406 39 -6 93
-16 120 -21 562 -106 1117 -98 1485 20 424 136 609 323 743 750 74 235 82 455
27 715 -80 377 -181 616 -358 850 -91 121 -243 279 -294 306 -126 65 -214 -71
-108 -166 24 -21 175 -220 221 -290 404 -618 478 -1075 232 -1438 -122 -180
-281 -268 -608 -337 -443 -93 -1143 -9 -1920 231 -71 23 -161 50 -200 61 -218
65 -692 238 -950 347 -88 38 -216 92 -285 121 -186 79 -398 171 -548 239 -74
33 -173 77 -220 97 -48 20 -126 54 -174 75 -86 38 -326 140 -483 204 -78 32
-182 76 -315 135 -36 15 -130 54 -210 85 -80 31 -194 76 -255 100 -60 24 -128
50 -150 58 -22 8 -80 28 -130 46 -278 98 -711 230 -895 271 -30 7 -98 23 -150
35 -52 13 -131 31 -175 40 -44 9 -109 23 -145 30 -275 59 -514 97 -900 146
-75 9 -835 20 -940 13z"/>
<path d="M7160 13530 c-35 -37 -54 -121 -70 -300 -18 -195 -58 -523 -80 -650
-92 -531 -128 -693 -280 -1250 -68 -250 -64 -325 17 -318 25 2 42 11 54 28 28
39 160 434 224 669 19 74 38 137 40 141 14 22 135 531 135 566 0 8 7 31 16 52
20 45 20 43 54 -123 13 -60 36 -161 51 -223 16 -62 29 -121 29 -132 0 -11 21
-91 46 -178 25 -86 53 -182 61 -212 19 -71 80 -273 97 -325 8 -22 37 -112 64
-200 28 -88 69 -218 91 -290 23 -71 50 -150 60 -175 57 -131 143 -408 134
-425 -5 -7 -45 -48 -90 -90 -162 -151 -217 -273 -165 -375 56 -112 168 -100
340 35 90 71 79 79 170 -135 64 -150 162 -367 195 -430 7 -14 23 -43 34 -65
12 -22 72 -143 134 -270 61 -126 138 -273 170 -326 33 -54 59 -100 59 -103 0
-8 73 -137 150 -266 32 -52 68 -115 80 -140 12 -24 30 -56 40 -70 10 -14 50
-81 90 -150 69 -117 103 -173 241 -388 30 -48 68 -107 83 -132 15 -25 51 -79
81 -120 30 -41 66 -93 81 -115 44 -66 104 -143 209 -270 55 -66 111 -133 123
-150 47 -62 178 -188 209 -201 55 -24 120 -18 148 12 80 87 22 242 -154 409
-423 403 -519 531 -899 1203 -171 301 -236 419 -281 512 -26 52 -70 137 -99
188 -29 50 -52 95 -52 98 0 3 -29 65 -64 138 -123 251 -337 753 -411 962 -38
107 -35 111 243 314 74 54 249 199 442 365 96 84 209 180 250 214 41 34 160
142 263 239 382 359 515 552 414 600 -50 24 -99 -7 -337 -212 -85 -73 -264
-218 -390 -315 -25 -19 -67 -52 -95 -74 -156 -121 -308 -236 -382 -287 -160
-111 -257 -179 -328 -231 -132 -98 -227 -158 -240 -153 -19 8 -112 268 -240
669 -26 83 -58 182 -70 220 -57 173 -174 624 -225 865 -97 464 -140 708 -165
930 -9 89 -45 252 -65 297 -69 157 -171 217 -240 143z"/>
<path d="M24806 13334 c-14 -14 -16 -211 -16 -2017 0 -1101 -1 -2947 -3 -4103
-2 -1769 0 -2104 12 -2117 19 -23 133 -24 155 -1 21 21 17 8213 -4 8239 -18
21 -123 21 -144 -1z"/>
<path d="M30547 12792 c-25 -28 -26 -4511 -1 -4536 25 -25 455 -24 480 1 16
17 17 57 11 617 -4 330 -7 1343 -7 2252 0 1489 -2 1654 -16 1668 -25 26 -444
24 -467 -2z"/>
<path d="M35046 12614 c-14 -14 -16 -78 -16 -557 0 -323 -4 -548 -10 -557 -8
-12 -52 -16 -259 -20 -186 -4 -253 -8 -263 -18 -21 -21 -25 -414 -5 -434 16
-15 209 -28 422 -28 58 0 95 -4 103 -12 9 -9 12 -239 12 -972 0 -961 6 -1180
34 -1311 63 -293 213 -430 566 -517 74 -18 453 -18 530 0 207 49 196 26 154
332 -22 157 -28 164 -122 140 -26 -7 -101 -15 -167 -17 -248 -11 -408 76 -462
252 -26 87 -28 2064 -2 2090 14 14 64 17 373 22 289 5 360 9 372 20 22 22 20
415 -2 437 -13 14 -61 16 -374 16 -313 0 -361 2 -374 16 -14 14 -16 78 -16
559 0 481 -2 545 -16 559 -13 14 -49 16 -239 16 -190 0 -226 -2 -239 -16z"/>
<path d="M11461 11828 c-43 -29 -135 -147 -197 -253 -26 -44 -64 -109 -84
-145 -41 -70 -171 -313 -282 -530 -39 -74 -101 -193 -138 -265 -37 -71 -91
-182 -120 -245 -29 -63 -76 -167 -105 -230 -29 -63 -67 -151 -85 -195 -18 -44
-44 -105 -57 -135 -28 -64 -136 -345 -168 -440 -12 -36 -38 -112 -58 -170
-216 -641 -146 -1103 169 -1118 135 -7 257 60 466 259 118 111 402 416 488
524 54 67 210 245 255 290 50 51 111 125 156 191 19 28 60 76 91 107 31 31 75
80 96 109 22 29 57 71 78 93 22 22 71 78 109 125 39 46 142 163 230 259 88 97
214 236 279 309 65 73 120 131 122 129 2 -2 -10 -41 -27 -88 -141 -392 -370
-1117 -399 -1264 -6 -33 -20 -96 -30 -140 -132 -556 101 -937 454 -747 187
101 381 314 360 396 -14 59 -101 70 -173 23 -20 -13 -82 -54 -138 -90 -55 -37
-117 -74 -137 -82 -198 -83 -231 168 -85 646 17 57 44 147 59 199 28 97 69
220 115 345 36 97 95 265 105 295 4 14 35 90 67 170 33 80 75 183 93 230 18
47 47 121 65 165 30 74 73 182 140 360 81 212 72 340 -26 379 -97 39 -165 -11
-358 -264 -85 -112 -203 -268 -249 -330 -22 -30 -71 -95 -109 -145 -38 -49
-103 -138 -144 -197 -40 -59 -85 -123 -99 -141 -86 -118 -133 -179 -199 -260
-40 -51 -94 -119 -120 -151 -25 -33 -71 -89 -101 -125 -31 -37 -71 -86 -90
-111 -19 -25 -86 -106 -150 -180 -63 -74 -127 -153 -141 -175 -14 -22 -37 -50
-50 -62 -13 -12 -91 -90 -174 -174 -308 -312 -650 -576 -737 -567 -150 15 -66
520 200 1213 108 280 459 1032 565 1210 64 107 406 793 421 844 9 30 16 67 16
82 0 74 -101 114 -169 67z"/>
<path d="M15958 11716 c-90 -32 -237 -152 -333 -271 -102 -127 -155 -198 -222
-300 -67 -101 -87 -131 -158 -235 -90 -132 -173 -258 -178 -272 -3 -9 -29 -48
-56 -86 -28 -39 -51 -74 -51 -80 0 -6 -16 -29 -35 -52 -20 -24 -54 -73 -76
-109 -54 -88 -68 -110 -178 -264 -52 -73 -108 -153 -125 -178 -17 -25 -59 -83
-93 -130 -132 -178 -225 -307 -276 -384 -51 -77 -87 -117 -87 -99 0 5 7 41 15
79 9 39 22 108 31 155 8 47 19 108 24 135 17 86 60 355 75 465 8 58 20 132 25
165 6 33 13 188 16 345 7 310 -3 379 -80 553 -81 182 -273 258 -426 170 -204
-119 -318 -317 -260 -451 53 -124 113 -110 222 52 118 174 209 224 255 140 69
-125 80 -518 22 -819 -5 -27 -18 -102 -29 -165 -11 -63 -24 -137 -29 -165 -21
-108 -43 -222 -51 -260 -5 -22 -16 -76 -25 -120 -22 -107 -60 -274 -96 -420
-96 -396 -113 -488 -107 -570 16 -188 177 -238 291 -89 45 59 124 197 202 354
32 63 98 192 148 285 49 94 111 211 137 260 97 187 212 402 239 446 16 25 33
61 40 80 6 20 32 63 56 97 25 35 73 108 106 164 34 57 72 116 84 133 22 29 58
87 180 290 29 50 78 122 108 160 30 39 66 90 82 115 47 77 79 125 90 135 6 6
22 26 35 45 46 66 228 267 297 326 237 207 310 192 359 -71 20 -109 6 -397
-26 -545 -5 -25 -17 -83 -25 -130 -9 -47 -27 -132 -40 -190 -13 -58 -31 -139
-40 -180 -9 -41 -29 -115 -45 -165 -16 -49 -40 -134 -55 -188 -36 -137 -155
-486 -250 -732 -25 -66 -57 -151 -72 -190 -14 -38 -44 -115 -66 -170 -185
-459 -208 -564 -137 -635 65 -65 186 41 269 235 16 39 50 114 75 168 25 54 59
135 75 180 16 45 39 107 51 137 87 227 280 821 339 1045 148 563 207 934 198
1254 -6 224 -17 282 -77 402 -66 130 -211 192 -342 145z"/>
<path d="M27595 11539 c-584 -75 -1014 -530 -1145 -1214 -56 -289 -51 -710 10
-1000 107 -500 402 -880 809 -1040 564 -221 1235 -90 1612 313 128 137 279
379 279 446 0 23 -40 66 -61 66 -5 0 -73 28 -151 61 -233 100 -226 101 -303
-33 -180 -312 -431 -472 -766 -485 -401 -16 -706 206 -862 627 -42 114 -87
339 -87 435 0 58 -69 55 1125 55 1021 0 1095 1 1111 17 28 28 10 370 -30 553
-127 596 -452 998 -931 1154 -157 50 -414 69 -610 45z m373 -454 c314 -81 519
-305 628 -683 45 -160 50 -156 -166 -164 -240 -9 -1452 1 -1464 12 -22 21 40
236 108 374 181 367 540 553 894 461z"/>
<path d="M38445 11520 c-177 -32 -364 -109 -485 -198 -30 -23 -69 -51 -87 -64
-108 -78 -265 -285 -358 -473 -329 -666 -230 -1675 214 -2184 240 -275 655
-436 1080 -418 465 19 821 195 1093 539 120 151 208 348 168 373 -12 7 -174
77 -307 131 -129 53 -130 53 -206 -88 -278 -514 -935 -651 -1342 -279 -203
185 -308 418 -354 782 -12 90 -9 114 14 123 8 3 495 6 1082 6 678 1 1080 5
1101 12 41 12 46 33 38 161 -59 882 -404 1392 -1063 1568 -114 31 -445 36
-588 9z m389 -425 c338 -59 558 -283 671 -687 40 -141 40 -141 19 -159 -18
-15 -1397 -24 -1562 -10 -94 7 -94 7 -56 158 123 495 494 774 928 698z"/>
<path d="M32779 11461 c-24 -19 -24 -19 -27 -1604 -2 -1436 -1 -1587 14 -1601
23 -24 465 -24 488 0 23 22 30 3185 8 3205 -4 4 -109 9 -233 13 -214 6 -227 6
-250 -13z"/>
</g>
<circle cx="3304" cy="627" r="97" fill="#e82d58"/>
</svg>